PathFileType	4	(X/Y/Z)	C:\Users\WrightLab\Desktop\Jo\P5V116.trc
DataRate	CameraRate	NumFrames	NumMarkers	Units	OrigDataRate	OrigDataStartFrame	OrigNumFrames
100.00	100.00	       22	19	mm	100.00	431	       492
Frame#	Time	Headset_Front			Headset_Back			Headset_Left			Headset_Right			Left_Shoulder			Right_Shoulder			Sternum			C7			Left Elbow			Right Elbow			Left Wrist			Right Wrist			Left ASIS			Right ASIS			S2			Left Knee			Right Knee			Left Ankle			Right Ankle			
		X1	Y1	Z1	X2	Y2	Z2	X3	Y3	Z3	X4	Y4	Z4	X5	Y5	Z5	X6	Y6	Z6	X7	Y7	Z7	X8	Y8	Z8	X9	Y9	Z9	X10	Y10	Z10	X11	Y11	Z11	X12	Y12	Z12	X13	Y13	Z13	X14	Y14	Z14	X15	Y15	Z15	X16	Y16	Z16	X17	Y17	Z17	X18	Y18	Z18	X19	Y19	Z19	

431	4.300				-237.26581	1732.66357	1884.63684							-113.03459	1552.12781	2040.74915	19.15094	1569.24731	1834.57751							-66.63608	1284.42175	2136.67603	6.60789	1230.60742	1573.34680	-247.01549	1211.02551	2034.38940	-185.08926	1094.41406	1625.54688	-198.83575	985.35236	1972.03577	-149.93263	994.50421	1699.00781				-208.15134	563.20300	2033.76074	-103.64143	533.70410	1707.45996	-129.50471	183.06621	2151.26465	6.93558	136.98247	1775.82886	
432	4.310				-243.86954	1732.04956	1885.96631							-122.80529	1551.94653	2045.95422	13.83719	1569.05859	1841.06885							-77.28893	1283.59253	2141.58862	8.65594	1231.17322	1579.68420	-255.54457	1209.96338	2034.96191	-184.01089	1094.68054	1624.83484	-204.67915	984.12689	1971.51501	-149.56503	995.53961	1698.65344				-213.85339	561.98126	2034.65894	-102.45807	535.64441	1707.70984	-155.94707	179.90887	2159.10327	6.93879	138.67990	1772.13000	
433	4.320				-250.16919	1730.85828	1886.86780							-132.78346	1550.91345	2049.14478	8.71390	1569.05676	1848.41907							-88.68267	1283.12830	2146.15991	10.49677	1231.50574	1586.67334	-264.01788	1208.89917	2034.78064	-182.59776	1095.47522	1629.75281	-211.09175	983.98816	1971.96265	-148.64783	993.90045	1704.22192				-219.72066	562.67737	2037.59729	-100.38424	536.19653	1710.08130	-182.33675	177.43590	2164.96265	6.61266	138.30589	1775.53821	
434	4.330				-256.47119	1729.73804	1887.71106							-142.16978	1550.49609	2053.54175	3.86104	1568.63892	1856.09399							-99.96714	1281.25220	2149.15308	12.31718	1231.83862	1592.71204	-271.95743	1207.94788	2034.71301	-181.33060	1095.33521	1629.54382	-218.09995	982.41260	1972.55872	-148.16724	994.81311	1704.53601				-225.20885	562.30835	2040.96106	-99.35134	534.66699	1715.67554	-208.12370	176.29524	2169.76611	6.40972	138.24406	1775.82788	
435	4.340				-262.58350	1729.20129	1889.62048							-152.13129	1549.08228	2056.50146	-1.43564	1568.25232	1862.99280							-111.37028	1280.90515	2154.44507	14.40178	1232.32935	1599.13904	-280.80685	1207.29395	2035.24036	-179.49515	1094.85229	1633.34619	-224.04918	981.49982	1971.86340	-148.03323	995.07062	1707.75073				-230.77478	562.33496	2043.95984	-97.39368	534.45612	1716.91931	-231.76831	174.05608	2171.93091	6.18888	139.52425	1774.86780	
436	4.350				-269.02768	1728.87146	1890.69653							-161.57022	1548.44263	2060.73633	-6.76435	1567.97803	1869.68896							-123.29035	1280.96814	2160.42725	16.50357	1232.48218	1605.89246	-288.92300	1206.39294	2034.08704	-178.04263	1093.75867	1634.88611	-230.55919	980.35913	1971.50281	-147.35268	994.64960	1710.41528				-237.10782	561.24957	2046.80530	-96.91213	534.70734	1721.81238	-254.56360	173.41341	2173.34131	6.07259	139.68199	1775.03369	
437	4.360				-275.02765	1727.47498	1892.28381							-171.47810	1547.34766	2063.62012	-11.98117	1567.24365	1877.02820							-134.41470	1279.02209	2162.94263	18.31782	1232.75623	1613.26294	-297.04337	1205.42358	2034.17554	-177.04721	1093.40198	1635.70752	-236.89070	979.78168	1973.15784	-146.98875	994.21570	1710.77734				-244.47998	561.10419	2051.27856	-96.78583	534.66998	1726.40601	-274.75284	171.00229	2172.61792	5.94918	139.83646	1775.20972	
438	4.370				-280.96500	1726.39624	1893.54480							-181.14084	1545.84424	2067.71362	-16.83482	1567.32385	1884.97607							-146.52899	1277.93860	2166.58228	20.42279	1232.78650	1621.32996	-305.74667	1203.95935	2033.92456	-175.42357	1092.97705	1638.49915	-242.76219	978.94080	1973.21265	-146.36234	993.82513	1713.87158				-252.90378	561.32629	2056.81616	-96.14012	535.36298	1729.87012	-292.64810	168.70474	2170.81494	5.57685	140.09096	1778.36243	
439	4.380													-191.07353	1544.44263	2070.09985	-22.03473	1566.76721	1892.46497							-158.39589	1276.42432	2170.33081	22.36936	1233.33008	1628.31604	-313.56204	1202.95874	2033.56812	-172.93561	1092.31555	1640.72058	-249.19528	977.51563	1974.45850	-145.57323	993.26892	1716.40332				-261.68030	560.41968	2062.37378	-95.90509	534.58191	1733.79602	-308.28653	167.09782	2169.49268	5.45081	140.30717	1778.54248	
440	4.390													-200.28360	1543.67419	2074.39282	-27.58543	1566.41992	1900.23315							-169.48355	1274.60291	2173.09692				-322.26065	1202.23267	2033.97314	-171.10199	1092.39270	1645.10278	-255.37383	977.31140	1975.57605							-270.71198	559.15863	2068.18628	-95.40115	533.57117	1737.47913	-321.60150	165.38754	2167.55225	5.41727	140.59468	1778.59045	
441	4.400													-210.18842	1542.14526	2076.95508	-32.90647	1565.78650	1907.41833							-181.71268	1274.05432	2177.97852				-330.23053	1201.48035	2032.56592	-168.61200	1092.65002	1648.98242	-261.58844	976.11829	1976.09851							-280.01773	556.96375	2073.09155	-95.55985	533.76563	1741.22375	-332.45322	162.02303	2165.26953	5.34723	140.87752	1778.69031	
442	4.410													-219.59201	1540.57031	2080.32593	-37.86333	1565.59387	1914.95667							-192.84309	1272.20215	2180.56128				-338.22958	1201.07520	2033.37537	-166.79390	1093.23352	1649.77307	-267.53476	975.29895	1976.97412							-289.89560	553.64154	2076.58545	-96.10581	533.33508	1746.16064	-340.18521	160.40303	2167.89722	5.21113	141.08002	1778.88440	
443	4.420													-229.24176	1538.94287	2083.45264	-43.10711	1565.44934	1923.75000							-204.61563	1271.03674	2184.20874				-346.05069	1200.53772	2033.89441	-164.82661	1092.26819	1653.92578	-273.35977	973.75604	1977.56519							-298.55341	550.23718	2078.24854	-95.77164	533.33392	1749.47717	-344.39862	158.57361	2170.97363	5.03246	141.40483	1779.13892	
444	4.430													-238.49298	1537.20959	2086.73682	-48.91649	1564.40295	1932.36597							-215.92307	1269.16846	2187.39502				-354.35492	1200.46423	2033.31860	-162.52939	1093.04395	1654.34241	-279.66202	973.36530	1979.65942							-307.41635	546.94135	2078.27808	-95.74402	532.37238	1752.05310	-345.33255	157.85597	2176.17700	4.54855	143.70573	1777.80334	
445	4.440													-247.28732	1535.12988	2089.15503	-54.46735	1564.44897	1940.02893							-227.36391	1267.54041	2190.54639				-363.81839	1197.57446	2029.63635	-160.41624	1093.58850	1658.54993	-285.51501	972.33142	1980.48108							-316.39594	545.63629	2080.46240	-96.12601	532.09314	1755.24829	-343.77991	154.46135	2177.56421	4.53813	144.43358	1777.07751	
446	4.450													-256.26108	1533.31787	2092.24902	-59.92548	1564.13135	1947.60486							-238.66357	1265.93860	2193.26221							-157.64316	1094.08899	1662.22937	-292.11264	972.00897	1982.56323							-323.09366	543.82648	2081.01929	-96.16601	530.94073	1760.30444	-343.46429	151.83830	2177.99683	4.47342	145.27542	1778.05603	
447	4.460																-65.13311	1564.02161	1956.02148							-249.73637	1263.94202	2195.30981										-298.03314	971.53900	1983.82751							-329.55600	542.37726	2080.69604	-96.44843	531.33539	1761.50830	-342.99637	149.29085	2178.03369	4.45850	145.56021	1778.09570	
448	4.470																-70.30989	1564.02942	1963.15161							-260.75943	1262.53906	2196.96021										-304.90280	971.35669	1986.15649							-335.80429	541.58807	2080.56274	-97.05335	531.45282	1768.18982	-341.71863	147.56770	2178.10425	4.34439	145.79881	1780.71643	
449	4.480																-76.41167	1564.34924	1971.00989							-271.73416	1262.22766	2199.27051										-311.07574	971.44104	1986.71826							-341.46112	541.12482	2080.20483	-97.50233	531.78284	1769.62708	-341.77505	147.43898	2177.99658	4.46072	146.43228	1780.54956	
450	4.490																-82.25567	1565.00452	1979.51428							-282.32504	1261.85413	2200.56079										-317.57016	972.39429	1988.56372							-347.04199	540.67462	2080.64209	-97.86229	531.58691	1775.98950	-342.72128	147.62776	2178.07520	4.34161	147.96106	1779.96887	
451	4.500																-87.42963	1565.92310	1987.45154																			-324.01947	974.67462	1990.34668							-352.12964	541.23035	2079.96313	-97.81825	531.81042	1777.32642	-343.12845	148.12457	2177.44385	4.01465	149.81993	1781.78320	
452	4.510																-93.33231	1566.06750	1993.75293																												-356.70200	541.99634	2081.00024	-98.60727	532.47504	1783.09534	-343.60739	148.21866	2177.53174	4.11995	150.82333	1781.33521	
